<mxfile host="app.diagrams.net" modified="2022-05-05T02:00:31.380Z" agent="5.0 (Windows NT 10.0; Win64; x64) AppleWebKit/537.36 (KHTML, like Gecko) Chrome/100.0.4896.127 Safari/537.36" etag="pVfLoR_lQXna-8SgoCMa" version="17.5.0" type="github">
  <diagram id="6ehh07f-5xCHu8n4xZN9" name="买卖股票的最佳时机">
    <mxGraphModel dx="652" dy="363" grid="1" gridSize="10" guides="1" tooltips="1" connect="1" arrows="1" fold="1" page="1" pageScale="1" pageWidth="827" pageHeight="1169" math="0" shadow="0">
      <root>
        <mxCell id="0" />
        <mxCell id="1" parent="0" />
        <mxCell id="4eFiEKks1GStONI-ui0x-3" value="" style="edgeStyle=orthogonalEdgeStyle;rounded=0;orthogonalLoop=1;jettySize=auto;html=1;" edge="1" parent="1" source="4eFiEKks1GStONI-ui0x-1" target="4eFiEKks1GStONI-ui0x-2">
          <mxGeometry relative="1" as="geometry" />
        </mxCell>
        <mxCell id="4eFiEKks1GStONI-ui0x-1" value="初始化&lt;br&gt;最大利润 = 0；&lt;br&gt;最底价格 = 最大数字；" style="rounded=1;whiteSpace=wrap;html=1;fillColor=#d5e8d4;strokeColor=#82b366;" vertex="1" parent="1">
          <mxGeometry x="160" y="64" width="150" height="50" as="geometry" />
        </mxCell>
        <mxCell id="4eFiEKks1GStONI-ui0x-5" value="" style="edgeStyle=orthogonalEdgeStyle;rounded=0;orthogonalLoop=1;jettySize=auto;html=1;" edge="1" parent="1" source="4eFiEKks1GStONI-ui0x-2" target="4eFiEKks1GStONI-ui0x-4">
          <mxGeometry relative="1" as="geometry" />
        </mxCell>
        <mxCell id="4eFiEKks1GStONI-ui0x-2" value="遍历prices数组" style="rounded=1;whiteSpace=wrap;html=1;fillColor=#d5e8d4;strokeColor=#82b366;" vertex="1" parent="1">
          <mxGeometry x="160" y="146" width="150" height="50" as="geometry" />
        </mxCell>
        <mxCell id="4eFiEKks1GStONI-ui0x-7" value="" style="edgeStyle=orthogonalEdgeStyle;rounded=0;orthogonalLoop=1;jettySize=auto;html=1;" edge="1" parent="1" source="4eFiEKks1GStONI-ui0x-4" target="4eFiEKks1GStONI-ui0x-6">
          <mxGeometry relative="1" as="geometry" />
        </mxCell>
        <mxCell id="4eFiEKks1GStONI-ui0x-11" value="" style="edgeStyle=orthogonalEdgeStyle;rounded=0;orthogonalLoop=1;jettySize=auto;html=1;" edge="1" parent="1" source="4eFiEKks1GStONI-ui0x-4" target="4eFiEKks1GStONI-ui0x-10">
          <mxGeometry relative="1" as="geometry" />
        </mxCell>
        <mxCell id="4eFiEKks1GStONI-ui0x-4" value="遍历结束？" style="rhombus;whiteSpace=wrap;html=1;fillColor=#d5e8d4;strokeColor=#82b366;rounded=1;" vertex="1" parent="1">
          <mxGeometry x="160" y="226" width="150" height="80" as="geometry" />
        </mxCell>
        <mxCell id="4eFiEKks1GStONI-ui0x-6" value="返回最大利润" style="whiteSpace=wrap;html=1;fillColor=#d5e8d4;strokeColor=#82b366;rounded=1;" vertex="1" parent="1">
          <mxGeometry x="365" y="251" width="120" height="30" as="geometry" />
        </mxCell>
        <mxCell id="4eFiEKks1GStONI-ui0x-13" value="" style="edgeStyle=orthogonalEdgeStyle;rounded=0;orthogonalLoop=1;jettySize=auto;html=1;" edge="1" parent="1" source="4eFiEKks1GStONI-ui0x-10" target="4eFiEKks1GStONI-ui0x-12">
          <mxGeometry relative="1" as="geometry" />
        </mxCell>
        <mxCell id="4eFiEKks1GStONI-ui0x-17" value="" style="edgeStyle=orthogonalEdgeStyle;rounded=0;orthogonalLoop=1;jettySize=auto;html=1;" edge="1" parent="1" source="4eFiEKks1GStONI-ui0x-10" target="4eFiEKks1GStONI-ui0x-16">
          <mxGeometry relative="1" as="geometry" />
        </mxCell>
        <mxCell id="4eFiEKks1GStONI-ui0x-10" value="当前价格是否小于&lt;br&gt;最低价格？" style="rhombus;whiteSpace=wrap;html=1;fillColor=#d5e8d4;strokeColor=#82b366;rounded=1;" vertex="1" parent="1">
          <mxGeometry x="160" y="331" width="150" height="80" as="geometry" />
        </mxCell>
        <mxCell id="4eFiEKks1GStONI-ui0x-22" style="edgeStyle=orthogonalEdgeStyle;rounded=0;orthogonalLoop=1;jettySize=auto;html=1;exitX=0.5;exitY=1;exitDx=0;exitDy=0;" edge="1" parent="1" source="4eFiEKks1GStONI-ui0x-12">
          <mxGeometry relative="1" as="geometry">
            <mxPoint x="234.94444444444446" y="493" as="targetPoint" />
          </mxGeometry>
        </mxCell>
        <mxCell id="4eFiEKks1GStONI-ui0x-12" value="更新最低价格" style="whiteSpace=wrap;html=1;fillColor=#d5e8d4;strokeColor=#82b366;rounded=1;" vertex="1" parent="1">
          <mxGeometry x="175" y="433" width="120" height="40" as="geometry" />
        </mxCell>
        <mxCell id="4eFiEKks1GStONI-ui0x-19" value="" style="edgeStyle=orthogonalEdgeStyle;rounded=0;orthogonalLoop=1;jettySize=auto;html=1;" edge="1" parent="1" source="4eFiEKks1GStONI-ui0x-16" target="4eFiEKks1GStONI-ui0x-18">
          <mxGeometry relative="1" as="geometry" />
        </mxCell>
        <mxCell id="4eFiEKks1GStONI-ui0x-21" style="edgeStyle=orthogonalEdgeStyle;rounded=0;orthogonalLoop=1;jettySize=auto;html=1;exitX=1;exitY=0.5;exitDx=0;exitDy=0;" edge="1" parent="1" source="4eFiEKks1GStONI-ui0x-16">
          <mxGeometry relative="1" as="geometry">
            <mxPoint x="428" y="490" as="targetPoint" />
            <Array as="points">
              <mxPoint x="520" y="371" />
              <mxPoint x="520" y="490" />
            </Array>
          </mxGeometry>
        </mxCell>
        <mxCell id="4eFiEKks1GStONI-ui0x-16" value="当前价格利润是否&lt;br&gt;大于最大利润？" style="rhombus;whiteSpace=wrap;html=1;fillColor=#d5e8d4;strokeColor=#82b366;rounded=1;" vertex="1" parent="1">
          <mxGeometry x="350" y="331" width="150" height="80" as="geometry" />
        </mxCell>
        <mxCell id="4eFiEKks1GStONI-ui0x-20" style="edgeStyle=orthogonalEdgeStyle;rounded=0;orthogonalLoop=1;jettySize=auto;html=1;exitX=0.5;exitY=1;exitDx=0;exitDy=0;entryX=0;entryY=0.5;entryDx=0;entryDy=0;" edge="1" parent="1" source="4eFiEKks1GStONI-ui0x-18" target="4eFiEKks1GStONI-ui0x-4">
          <mxGeometry relative="1" as="geometry" />
        </mxCell>
        <mxCell id="4eFiEKks1GStONI-ui0x-18" value="更新最大利润" style="whiteSpace=wrap;html=1;fillColor=#d5e8d4;strokeColor=#82b366;rounded=1;" vertex="1" parent="1">
          <mxGeometry x="365" y="434" width="120" height="39" as="geometry" />
        </mxCell>
        <mxCell id="4eFiEKks1GStONI-ui0x-23" value="Yes" style="text;html=1;strokeColor=none;fillColor=none;align=center;verticalAlign=middle;whiteSpace=wrap;rounded=0;" vertex="1" parent="1">
          <mxGeometry x="305" y="240" width="60" height="30" as="geometry" />
        </mxCell>
        <mxCell id="4eFiEKks1GStONI-ui0x-24" value="Yes" style="text;html=1;strokeColor=none;fillColor=none;align=center;verticalAlign=middle;whiteSpace=wrap;rounded=0;" vertex="1" parent="1">
          <mxGeometry x="235" y="403" width="60" height="30" as="geometry" />
        </mxCell>
        <mxCell id="4eFiEKks1GStONI-ui0x-25" value="Yes" style="text;html=1;strokeColor=none;fillColor=none;align=center;verticalAlign=middle;whiteSpace=wrap;rounded=0;" vertex="1" parent="1">
          <mxGeometry x="425" y="404" width="60" height="30" as="geometry" />
        </mxCell>
        <mxCell id="4eFiEKks1GStONI-ui0x-26" value="No" style="text;html=1;strokeColor=none;fillColor=none;align=center;verticalAlign=middle;whiteSpace=wrap;rounded=0;" vertex="1" parent="1">
          <mxGeometry x="230" y="301" width="60" height="30" as="geometry" />
        </mxCell>
        <mxCell id="4eFiEKks1GStONI-ui0x-27" value="No" style="text;html=1;strokeColor=none;fillColor=none;align=center;verticalAlign=middle;whiteSpace=wrap;rounded=0;" vertex="1" parent="1">
          <mxGeometry x="301" y="337" width="60" height="30" as="geometry" />
        </mxCell>
        <mxCell id="4eFiEKks1GStONI-ui0x-28" value="No" style="text;html=1;strokeColor=none;fillColor=none;align=center;verticalAlign=middle;whiteSpace=wrap;rounded=0;" vertex="1" parent="1">
          <mxGeometry x="485" y="347" width="60" height="30" as="geometry" />
        </mxCell>
      </root>
    </mxGraphModel>
  </diagram>
</mxfile>
